<?xml version="1.0" encoding="UTF-8" standalone="no"?>
<svg
   xmlns:dc="http://purl.org/dc/elements/1.1/"
   xmlns:cc="http://creativecommons.org/ns#"
   xmlns:rdf="http://www.w3.org/1999/02/22-rdf-syntax-ns#"
   xmlns:svg="http://www.w3.org/2000/svg"
   xmlns="http://www.w3.org/2000/svg"
   viewBox="0 0 363 111.02667"
   height="111.02667"
   width="363"
   xml:space="preserve"
   id="svg2"
   version="1.1"><metadata
     id="metadata8"><rdf:RDF><cc:Work
         rdf:about=""><dc:format>image/svg+xml</dc:format><dc:type
           rdf:resource="http://purl.org/dc/dcmitype/StillImage" /></cc:Work></rdf:RDF></metadata><defs
     id="defs6"><clipPath
       id="clipPath20"
       clipPathUnits="userSpaceOnUse"><path
         id="path18"
         d="M 697.5,301.715 H 669.879 C 365.16,301.793 0,295.348 0,290.465 0,285.621 301.559,273.98 670.039,273.98 H 2050.51 c 304.8,0 669.96,6.446 669.96,11.329 0,4.882 -301.56,16.484 -670.04,16.484 H 697.5 Z" /></clipPath><clipPath
       id="clipPath26"
       clipPathUnits="userSpaceOnUse"><path
         id="path24"
         d="M 0,301.793 H 2720.47 V 273.98 H 0 Z" /></clipPath><linearGradient
       id="linearGradient36"
       spreadMethod="pad"
       gradientTransform="matrix(2720.47,0,0,2720.47,0,287.885)"
       gradientUnits="userSpaceOnUse"
       y2="0"
       x2="1"
       y1="0"
       x1="0"><stop
         id="stop28"
         offset="0"
         style="stop-opacity:1;stop-color:#989da0" /><stop
         id="stop30"
         offset="0.5"
         style="stop-opacity:1;stop-color:#494d51" /><stop
         id="stop32"
         offset="0.67"
         style="stop-opacity:1;stop-color:#606468" /><stop
         id="stop34"
         offset="1"
         style="stop-opacity:1;stop-color:#989da0" /></linearGradient><clipPath
       id="clipPath46"
       clipPathUnits="userSpaceOnUse"><path
         id="path44"
         d="M 0,0 H 2722.5 V 832.73 H 0 Z" /></clipPath><clipPath
       id="clipPath52"
       clipPathUnits="userSpaceOnUse"><path
         id="path50"
         d="m 227.34,129.371 c 0,35.352 -24.84,56.719 -66.399,57.149 H 2.03125 V 0.230469 H 28.9492 V 67.7305 H 158.008 c 23.281,0 37.152,-11.6407 37.152,-31.0547 V 0.230469 h 27.461 V 36.832 c 0.621,18.9063 -10.672,36.211 -28.211,43.2813 20.43,7.5781 33.711,27.4607 32.93,49.2577 z M 161.172,92.4961 H 28.9492 V 161.988 H 161.172 c 36.168,0 38.949,-26.601 38.949,-34.765 0,-8.203 -2.781,-34.7269 -38.949,-34.7269 z m 540,57.2659 c -13.793,27.773 -29.453,39.179 -54.223,39.179 -24.758,0 -41.25,-11.796 -54.449,-39.218 L 521.641,4.64453 519.379,-0.00390625 h 28.863 L 549.141,1.79297 574.34,53.4727 h 144.84 l 25.199,-51.67973 0.82,-1.79687625 h 29.25 L 772.191,4.64453 Z M 586.719,78.0039 618.16,142.73 c 7.5,15.391 15.75,21.68 28.719,21.68 12.961,0 21.09,-6.289 28.512,-21.68 l 31.488,-64.4136 z m 470.551,15 c 0.23,-62.7734 27.38,-92.773431 86.32,-92.773431 H 1290 V 26.6367 h -144.77 c -44.29,0 -60.82,18.125 -60.82,66.836 0,48.6723 16.53,66.8753 60.82,66.8753 H 1290 v 26.172 h -146.48 c -59.69,-0.508 -86.02,-29.297 -86.02,-93.2817 z M 1595.31,0.230469 h 26.96 V 186.52 h -26.96 z M 2152.5,26.9492 c -25.66,0 -31.8,8.3203 -78.52,71.0156 l -2.1,2.7732 c -50.32,67.5 -63.91,85.43 -107.86,85.782 h -22.5 V 0.230469 h 26.72 V 159.613 c 24.22,0 30,-7.976 76.02,-67.4997 l 5.62,-7.5 c 50.71,-66.2969 64.38,-84.148456 106.84,-84.5390812 h 22.5 V 186.52 h -26.72 z m 543.44,69.2969 V 26.4023 h -118.48 c -44.34,0 -60.82,18.2422 -60.82,67.5 0,49.2967 16.48,66.6017 60.82,66.6017 h 143.56 v 26.016 h -145.67 c -58.87,-0.508 -86.33,-30 -86.33,-93.0083 0,-62.9687 27.46,-93.281231 86.41,-93.281231 H 2722.5 V 96.2461 Z" /></clipPath><clipPath
       id="clipPath58"
       clipPathUnits="userSpaceOnUse"><path
         id="path56"
         d="M 2.03125,188.941 H 2722.5 V -0.00390625 H 2.03125 Z" /></clipPath><linearGradient
       id="linearGradient68"
       spreadMethod="pad"
       gradientTransform="matrix(0,-194.775,194.775,0,1362.27,190.58)"
       gradientUnits="userSpaceOnUse"
       y2="0"
       x2="1"
       y1="0"
       x1="0"><stop
         id="stop60"
         offset="0"
         style="stop-opacity:1;stop-color:#73787c" /><stop
         id="stop62"
         offset="0.5"
         style="stop-opacity:1;stop-color:#808589" /><stop
         id="stop64"
         offset="0.7"
         style="stop-opacity:1;stop-color:#696d72" /><stop
         id="stop66"
         offset="1"
         style="stop-opacity:1;stop-color:#404347" /></linearGradient></defs><g
     transform="matrix(1.3333333,0,0,-1.3333333,0,111.02667)"
     id="g10"><g
       transform="scale(0.1)"
       id="g12"><g
         id="g14"><g
           clip-path="url(#clipPath20)"
           id="g16"><g
             clip-path="url(#clipPath26)"
             id="g22"><path
               id="path38"
               style="fill:url(#linearGradient36);fill-opacity:1;fill-rule:nonzero;stroke:none"
               d="m 645,273 v 1 H 480 v 1 h -78 v 1 h -60 v 1 h -50 v 1 h -43 v 1 h -38 v 1 h -34 v 1 h -31 v 1 h -28 v 1 H 93 v 1 H 70 v 1 H 50 v 1 H 32 v 1 H 18 v 1 H 7 v 1 H 1 v 1 H 0 v 1 h 1 v 1 h 10 v 1 h 17 v 1 h 25 v 1 h 32 v 1 h 38 v 1 h 46 v 1 h 54 v 1 h 65 v 1 h 80 v 1 h 109 v 1 h 1739 v -1 h 87 v -1 h 64 v -1 h 51 v -1 h 44 v -1 h 39 v -1 h 35 v -1 h 33 v -1 h 28 v -1 h 25 v -1 h 24 v -1 h 21 v -1 h 17 v -1 h 15 v -1 h 12 v -1 h 8 v -1 h 2 v -1 h -1 v -1 h -7 v -1 h -16 v -1 h -23 v -1 h -30 v -1 h -37 v -1 h -44 v -1 h -52 v -1 h -61 v -1 h -75 v -1 h -98 v -1 h -195 v -1" /></g></g></g><g
         id="g40"><g
           clip-path="url(#clipPath46)"
           id="g42"><g
             clip-path="url(#clipPath52)"
             id="g48"><g
               clip-path="url(#clipPath58)"
               id="g54"><path
                 id="path70"
                 style="fill:url(#linearGradient68);fill-opacity:1;fill-rule:nonzero;stroke:none"
                 d="m 2,0 v 187 h 168 v -1 h 8 v -1 h 4 v -1 h 5 v -1 h 3 v -1 h 3 v -1 h 2 v -1 h 2 v -1 h 3 v -1 h 2 v -1 h 1 v -1 h 1 v -1 h 2 v -1 h 1 v -1 h 2 v -1 h 1 v -1 h 1 v -1 h 1 v -1 h 1 v -1 h 1 v -1 h 1 v -1 h 1 v -1 h 1 v -1 h 1 v -2 h 1 v -2 h 1 v -1 h 1 v -2 h 1 v -2 h 1 v -2 h 1 v -3 h 1 v -4 h 1 v -3 h 1 v -7 h 1 v -15 h -1 v -5 h -1 v -4 h -1 v -3 h -1 v -2 h -1 v -2 h -1 v -2 h -1 v -2 h -1 v -2 h -1 v -1 h -1 v -1 h -1 v -2 h -1 v -1 h -1 v -1 h -1 v -1 h -1 v -1 h -1 v -1 h -1 v -1 h -1 v -1 h -1 v -1 h -2 v -1 h -1 v -1 h -2 v -1 h -1 v -1 h -2 v -1 h -2 v -1 h -2 v -2 h 2 v -1 h 2 v -1 h 2 v -1 h 1 v -1 h 1 v -1 h 2 v -1 h 1 v -1 h 1 v -1 h 1 v -1 h 1 v -1 h 1 v -1 h 1 v -2 h 1 v -1 h 1 v -1 h 1 v -2 h 1 v -2 h 1 v -1 h 1 v -3 h 1 v -2 h 1 v -3 h 1 v -5 h 1 V 0 h -28 v 39 h -1 v 6 h -1 v 3 h -1 v 2 h -1 v 2 h -1 v 2 h -1 v 1 h -1 v 1 h -1 v 1 h -1 v 1 h -1 v 1 h -1 v 1 h -1 v 1 h -2 v 1 h -1 v 1 h -3 v 1 h -2 v 1 h -4 v 1 h -4 v 1 H 29 V 0 Z m 517,0 v 2 h 1 v 2 h 1 v 2 h 1 v 2 h 1 v 2 h 1 v 2 h 1 v 2 h 1 v 2 h 1 v 2 h 1 v 2 h 1 v 2 h 1 v 2 h 1 v 2 h 1 v 2 h 1 v 2 h 1 v 2 h 1 v 3 h 1 v 2 h 1 v 2 h 1 v 2 h 1 v 2 h 1 v 2 h 1 v 2 h 1 v 2 h 1 v 2 h 1 v 2 h 1 v 2 h 1 v 2 h 1 v 2 h 1 v 2 h 1 v 2 h 1 v 2 h 1 v 2 h 1 v 2 h 1 v 2 h 1 v 2 h 1 v 2 h 1 v 3 h 1 v 2 h 1 v 2 h 1 v 2 h 1 v 2 h 1 v 2 h 1 v 2 h 1 v 2 h 1 v 2 h 1 v 2 h 1 v 2 h 1 v 2 h 1 v 2 h 1 v 2 h 1 v 2 h 1 v 2 h 1 v 2 h 1 v 2 h 1 v 2 h 1 v 2 h 1 v 2 h 1 v 3 h 1 v 2 h 1 v 2 h 1 v 2 h 1 v 2 h 1 v 2 h 1 v 2 h 1 v 2 h 1 v 2 h 1 v 2 h 1 v 2 h 1 v 2 h 1 v 2 h 1 v 2 h 1 v 2 h 1 v 2 h 1 v 2 h 1 v 2 h 1 v 2 h 1 v 2 h 1 v 1 h 1 v 2 h 1 v 1 h 1 v 2 h 1 v 1 h 1 v 2 h 1 v 1 h 1 v 1 h 1 v 1 h 1 v 1 h 1 v 2 h 1 v 1 h 1 v 1 h 2 v 1 h 1 v 1 h 1 v 1 h 1 v 1 h 2 v 1 h 1 v 1 h 2 v 1 h 2 v 1 h 1 v 1 h 3 v 1 h 3 v 1 h 3 v 1 h 5 v 1 h 22 v -1 h 5 v -1 h 3 v -1 h 3 v -1 h 3 v -1 h 1 v -1 h 2 v -1 h 2 v -1 h 1 v -1 h 2 v -1 h 1 v -1 h 1 v -1 h 1 v -1 h 1 v -1 h 1 v -1 h 1 v -1 h 1 v -1 h 1 v -1 h 1 v -1 h 1 v -1 h 1 v -2 h 1 v -1 h 1 v -2 h 1 v -1 h 1 v -2 h 1 v -1 h 1 v -2 h 1 v -2 h 1 v -2 h 1 v -1 h 1 v -2 h 1 v -2 h 1 v -2 h 1 v -3 h 1 v -2 h 1 v -2 h 1 v -2 h 1 v -2 h 1 v -2 h 1 v -2 h 1 v -2 h 1 v -2 h 1 v -2 h 1 v -2 h 1 v -2 h 1 v -2 h 1 v -2 h 1 v -2 h 1 v -2 h 1 v -2 h 1 v -2 h 1 v -2 h 1 v -2 h 1 v -2 h 1 v -2 h 1 v -2 h 1 v -3 h 1 v -2 h 1 v -2 h 1 v -2 h 1 v -2 h 1 v -2 h 1 v -2 h 1 v -2 h 1 v -2 h 1 v -2 h 1 v -2 h 1 v -2 h 1 v -2 h 1 v -2 h 1 v -2 h 1 v -2 h 1 v -2 h 1 v -2 h 1 v -2 h 1 v -2 h 1 v -2 h 1 v -2 h 1 v -2 h 1 v -3 h 1 v -2 h 1 v -2 h 1 v -2 h 1 v -2 h 1 v -2 h 1 v -2 h 1 v -2 h 1 v -2 h 1 v -2 h 1 v -2 h 1 v -2 h 1 v -2 h 1 v -2 h 1 v -2 h 1 v -2 h 1 v -2 h 1 v -2 h 1 v -2 h 1 v -2 h 1 v -2 h 1 V 8 h 1 V 6 h 1 V 3 h 1 V 1 h 1 V 0 h -31 v 2 h -1 v 2 h -1 v 2 h -1 v 2 h -1 v 2 h -1 v 2 h -1 v 2 h -1 v 2 h -1 v 2 h -1 v 3 h -1 v 2 h -1 v 2 h -1 v 2 h -1 v 2 h -1 v 2 h -1 v 2 h -1 v 2 h -1 v 2 h -1 v 2 h -1 v 2 h -1 v 2 h -1 v 2 h -1 v 2 h -1 v 2 h -1 v 2 h -1 v 2 H 575 v -1 h -1 v -2 h -1 v -2 h -1 v -2 h -1 v -2 h -1 v -2 h -1 v -2 h -1 v -2 h -1 v -2 h -1 v -2 h -1 v -2 h -1 v -2 h -1 v -2 h -1 v -2 h -1 v -2 h -1 v -2 h -1 v -3 h -1 v -2 h -1 v -2 h -1 v -2 h -1 v -2 h -1 V 9 h -1 V 7 h -1 V 5 h -1 V 3 h -1 V 1 h -1 V 0 Z m 610,0 v 1 h -8 v 1 h -4 v 1 h -4 v 1 h -4 v 1 h -4 v 1 h -3 v 1 h -2 v 1 h -2 v 1 h -2 v 1 h -2 v 1 h -2 v 1 h -2 v 1 h -1 v 1 h -1 v 1 h -2 v 1 h -1 v 1 h -1 v 1 h -1 v 1 h -1 v 1 h -2 v 1 h -1 v 1 h -1 v 1 h -1 v 2 h -1 v 1 h -1 v 1 h -1 v 2 h -1 v 1 h -1 v 2 h -1 v 1 h -1 v 1 h -1 v 2 h -1 v 2 h -1 v 3 h -1 v 2 h -1 v 3 h -1 v 2 h -1 v 2 h -1 v 4 h -1 v 5 h -1 v 5 h -1 v 5 h -1 v 9 h -1 v 28 h 1 v 11 h 1 v 5 h 1 v 5 h 1 v 5 h 1 v 4 h 1 v 3 h 1 v 2 h 1 v 3 h 1 v 2 h 1 v 3 h 1 v 2 h 1 v 2 h 1 v 1 h 1 v 2 h 1 v 1 h 1 v 1 h 1 v 2 h 1 v 1 h 1 v 2 h 1 v 1 h 1 v 1 h 1 v 1 h 1 v 1 h 2 v 1 h 1 v 1 h 1 v 1 h 1 v 1 h 1 v 1 h 2 v 1 h 1 v 1 h 1 v 1 h 2 v 1 h 2 v 1 h 3 v 1 h 2 v 1 h 2 v 1 h 2 v 1 h 3 v 1 h 4 v 1 h 4 v 1 h 4 v 1 h 4 v 1 h 11 v 1 h 157 v -27 h -153 v -1 h -9 v -1 h -5 v -1 h -4 v -1 h -3 v -1 h -2 v -1 h -3 v -1 h -2 v -1 h -2 v -1 h -1 v -1 h -1 v -1 h -2 v -1 h -1 v -1 h -1 v -1 h -1 v -1 h -1 v -1 h -1 v -1 h -1 v -2 h -1 v -1 h -1 v -2 h -1 v -1 h -1 v -1 h -1 v -3 h -1 v -3 h -1 v -2 h -1 v -3 h -1 v -5 h -1 v -6 h -1 v -7 h -1 V 80 h 1 v -7 h 1 v -6 h 1 v -5 h 1 v -3 h 1 v -2 h 1 v -3 h 1 v -3 h 1 v -1 h 1 v -2 h 1 v -1 h 1 v -1 h 1 v -2 h 1 v -1 h 1 v -1 h 1 v -1 h 1 v -1 h 1 v -1 h 1 v -1 h 2 v -1 h 1 v -1 h 1 v -1 h 2 v -1 h 2 v -1 h 3 v -1 h 2 v -1 h 3 v -1 h 4 v -1 h 5 v -1 h 9 v -1 h 153 V 0 Z m 466,187 h 28 V 0 h -28 z M 1941,0 v 187 h 34 v -1 h 7 v -1 h 5 v -1 h 4 v -1 h 3 v -1 h 3 v -1 h 2 v -1 h 2 v -1 h 2 v -1 h 2 v -1 h 1 v -1 h 2 v -1 h 1 v -1 h 2 v -1 h 1 v -1 h 1 v -1 h 2 v -1 h 1 v -1 h 1 v -1 h 1 v -1 h 1 v -1 h 1 v -1 h 1 v -1 h 1 v -1 h 1 v -1 h 1 v -1 h 1 v -1 h 1 v -1 h 1 v -1 h 1 v -1 h 1 v -1 h 1 v -1 h 1 v -1 h 1 v -1 h 1 v -2 h 1 v -1 h 1 v -1 h 1 v -1 h 1 v -1 h 1 v -2 h 1 v -1 h 1 v -1 h 1 v -1 h 1 v -1 h 1 v -2 h 1 v -1 h 1 v -1 h 1 v -2 h 1 v -1 h 1 v -1 h 1 v -1 h 1 v -2 h 1 v -1 h 1 v -1 h 1 v -2 h 1 v -1 h 1 v -1 h 1 v -2 h 1 v -1 h 1 v -1 h 1 v -2 h 1 v -1 h 1 v -1 h 1 v -2 h 1 v -1 h 1 v -1 h 1 v -2 h 1 v -1 h 1 v -1 h 1 v -2 h 1 v -1 h 1 v -1 h 1 v -2 h 1 v -1 h 1 v -1 h 1 v -2 h 1 v -1 h 1 v -1 h 1 v -2 h 1 v -1 h 1 v -1 h 1 v -2 h 1 v -1 h 1 v -1 h 1 v -2 h 1 v -1 h 1 v -1 h 1 v -2 h 1 v -1 h 1 v -1 h 1 v -2 h 1 v -1 h 1 v -1 h 1 v -2 h 1 v -1 h 1 v -1 h 1 v -2 h 1 v -1 h 1 v -1 h 1 v -1 h 1 v -2 h 1 v -1 h 1 v -1 h 1 v -2 h 1 v -1 h 1 v -1 h 1 v -1 h 1 v -2 h 1 v -1 h 1 v -1 h 1 v -1 h 1 v -1 h 1 v -2 h 1 v -1 h 1 v -1 h 1 v -1 h 1 v -1 h 1 v -1 h 1 v -1 h 1 v -1 h 1 v -1 h 1 v -1 h 1 v -1 h 1 v -1 h 1 v -1 h 1 v -1 h 1 v -1 h 1 v -1 h 2 v -1 h 1 v -1 h 2 v -1 h 1 v -1 h 3 v -1 h 2 v -1 h 4 v -1 h 9 v -1 h 2 v 160 h 28 V 0 h -38 v 1 h -5 v 1 h -4 v 1 h -4 v 1 h -2 v 1 h -3 v 1 h -2 v 1 h -2 v 1 h -2 v 1 h -2 v 1 h -1 v 1 h -2 v 1 h -1 v 1 h -1 v 1 h -2 v 1 h -1 v 1 h -1 v 1 h -2 v 1 h -1 v 1 h -1 v 1 h -1 v 1 h -1 v 1 h -1 v 1 h -1 v 1 h -1 v 1 h -1 v 1 h -1 v 1 h -1 v 1 h -1 v 1 h -1 v 1 h -1 v 1 h -1 v 2 h -1 v 1 h -1 v 1 h -1 v 1 h -1 v 1 h -1 v 1 h -1 v 1 h -1 v 2 h -1 v 1 h -1 v 1 h -1 v 1 h -1 v 1 h -1 v 2 h -1 v 1 h -1 v 1 h -1 v 1 h -1 v 2 h -1 v 1 h -1 v 1 h -1 v 1 h -1 v 2 h -1 v 1 h -1 v 1 h -1 v 2 h -1 v 1 h -1 v 1 h -1 v 1 h -1 v 2 h -1 v 1 h -1 v 1 h -1 v 2 h -1 v 1 h -1 v 1 h -1 v 2 h -1 v 1 h -1 v 1 h -1 v 1 h -1 v 2 h -1 v 1 h -1 v 1 h -1 v 2 h -1 v 1 h -1 v 1 h -1 v 2 h -1 v 1 h -1 v 1 h -1 v 2 h -1 v 1 h -1 v 1 h -1 v 2 h -1 v 1 h -1 v 1 h -1 v 1 h -1 v 2 h -1 v 1 h -1 v 1 h -1 v 2 h -1 v 1 h -1 v 1 h -1 v 1 h -1 v 2 h -1 v 1 h -1 v 1 h -1 v 2 h -1 v 1 h -1 v 1 h -1 v 1 h -1 v 2 h -1 v 1 h -1 v 1 h -1 v 1 h -1 v 2 h -1 v 1 h -1 v 1 h -1 v 1 h -1 v 2 h -1 v 1 h -1 v 1 h -1 v 1 h -1 v 2 h -1 v 1 h -1 v 1 h -1 v 1 h -1 v 1 h -1 v 1 h -1 v 2 h -1 v 1 h -1 v 1 h -1 v 1 h -1 v 1 h -1 v 1 h -1 v 1 h -1 v 1 h -1 v 1 h -1 v 1 h -2 v 1 h -1 v 1 h -1 v 1 h -1 v 1 h -2 v 1 h -2 v 1 h -1 v 1 h -3 v 1 h -3 v 1 h -4 v 1 h -8 V 0 Z m 620,0 v 1 h -8 v 1 h -4 v 1 h -4 v 1 h -5 v 1 h -4 v 1 h -2 v 1 h -2 v 1 h -2 v 1 h -2 v 1 h -2 v 1 h -2 v 1 h -2 v 1 h -1 v 1 h -2 v 1 h -1 v 1 h -1 v 1 h -1 v 1 h -1 v 1 h -1 v 1 h -2 v 1 h -1 v 1 h -1 v 1 h -1 v 1 h -1 v 2 h -1 v 1 h -1 v 2 h -1 v 1 h -1 v 1 h -1 v 2 h -1 v 1 h -1 v 2 h -1 v 2 h -1 v 2 h -1 v 3 h -1 v 2 h -1 v 3 h -1 v 2 h -1 v 3 h -1 v 5 h -1 v 5 h -1 v 5 h -1 v 7 h -1 v 37 h 1 v 7 h 1 v 5 h 1 v 5 h 1 v 5 h 1 v 3 h 1 v 2 h 1 v 3 h 1 v 2 h 1 v 3 h 1 v 2 h 1 v 2 h 1 v 2 h 1 v 1 h 1 v 1 h 1 v 2 h 1 v 1 h 1 v 2 h 1 v 1 h 1 v 1 h 1 v 2 h 1 v 1 h 1 v 1 h 2 v 1 h 1 v 1 h 1 v 1 h 1 v 1 h 1 v 1 h 2 v 1 h 1 v 1 h 1 v 1 h 2 v 1 h 2 v 1 h 2 v 1 h 2 v 1 h 2 v 1 h 2 v 1 h 2 v 1 h 3 v 1 h 4 v 1 h 4 v 1 h 4 v 1 h 5 v 1 h 10 v 1 h 157 v -27 h -155 v -1 h -8 v -1 h -5 v -1 h -4 v -1 h -3 v -1 h -2 v -1 h -2 v -1 h -2 v -1 h -2 v -1 h -2 v -1 h -1 v -1 h -1 v -1 h -1 v -1 h -1 v -1 h -2 v -1 h -1 v -2 h -1 v -1 h -1 v -2 h -1 v -1 h -1 v -2 h -1 v -1 h -1 v -3 h -1 v -3 h -1 v -2 h -1 v -3 h -1 v -6 h -1 v -5 h -1 v -11 h -1 V 84 h 1 V 74 h 1 v -6 h 1 v -5 h 1 v -3 h 1 v -3 h 1 v -2 h 1 v -3 h 1 v -2 h 1 v -1 h 1 v -2 h 1 v -1 h 1 v -2 h 1 v -1 h 1 v -1 h 1 v -1 h 1 v -1 h 1 v -1 h 1 v -1 h 2 v -1 h 1 v -1 h 1 v -1 h 2 v -1 h 2 v -1 h 2 v -1 h 3 v -1 h 2 v -1 h 5 v -1 h 4 v -1 h 7 v -1 h 129 v 70 h 28 V 0 Z M 588,80 v -1 h 118 v 1 h -1 v 2 h -1 v 2 h -1 v 2 h -1 v 2 h -1 v 2 h -1 v 2 h -1 v 2 h -1 v 2 h -1 v 2 h -1 v 2 h -1 v 2 h -1 v 2 h -1 v 2 h -1 v 2 h -1 v 2 h -1 v 2 h -1 v 2 h -1 v 2 h -1 v 2 h -1 v 3 h -1 v 2 h -1 v 2 h -1 v 2 h -1 v 2 h -1 v 2 h -1 v 2 h -1 v 2 h -1 v 2 h -1 v 2 h -1 v 2 h -1 v 2 h -1 v 2 h -1 v 2 h -1 v 1 h -1 v 2 h -1 v 2 h -1 v 1 h -1 v 1 h -1 v 1 h -1 v 1 h -1 v 1 h -1 v 1 h -1 v 1 h -2 v 1 h -2 v 1 h -1 v 1 h -2 v 1 h -5 v 1 h -8 v -1 h -5 v -1 h -2 v -1 h -2 v -1 h -2 v -1 h -1 v -1 h -1 v -1 h -1 v -1 h -1 v -1 h -1 v -1 h -1 v -1 h -1 v -1 h -1 v -1 h -1 v -2 h -1 v -2 h -1 v -1 h -1 v -2 h -1 v -2 h -1 v -2 h -1 v -2 h -1 v -2 h -1 v -2 h -1 v -2 h -1 v -2 h -1 v -3 h -1 v -2 h -1 v -2 h -1 v -2 h -1 v -2 h -1 v -2 h -1 v -2 h -1 v -2 h -1 v -2 h -1 v -2 h -1 v -2 h -1 v -2 h -1 v -2 h -1 v -2 h -1 v -2 h -1 v -2 h -1 v -2 h -1 v -3 h -1 v -2 h -1 v -2 h -1 v -2 h -1 v -2 h -1 v -2 h -1 V 80 Z M 29,94 v -1 h 139 v 1 h 6 v 1 h 3 v 1 h 3 v 1 h 2 v 1 h 2 v 1 h 1 v 1 h 2 v 1 h 1 v 1 h 1 v 1 h 1 v 1 h 1 v 1 h 1 v 1 h 1 v 1 h 1 v 2 h 1 v 2 h 1 v 2 h 1 v 2 h 1 v 3 h 1 v 7 h 1 v 5 h -1 v 6 h -1 v 3 h -1 v 3 h -1 v 2 h -1 v 2 h -1 v 1 h -1 v 2 h -1 v 1 h -1 v 1 h -1 v 1 h -1 v 1 h -1 v 1 h -2 v 1 h -1 v 1 h -2 v 1 h -2 v 1 h -3 v 1 h -3 v 1 h -4 v 1 H 29 V 94" /></g></g></g></g><path
         id="path72"
         style="fill:#ed1b4f;fill-opacity:1;fill-rule:nonzero;stroke:none"
         d="M 1173.83,639.141 V 524.102 c -2.93,-45.59 -69.96,-45.59 -72.89,0 v 115.039 h -63.4 v -127.5 c 0,-43.051 44.65,-77.969 99.61,-77.969 54.96,0 99.61,34.918 99.61,77.969 v 127.5 z M 1380,775.891 V 441.09 h 63.75 V 775.891 Z M 1271.76,441.09 h 63.75 v 334.801 h -63.75 z M 959.531,615.23 c 17.66,15.86 27.848,38.399 28.129,62.11 -0.039,21.371 -8.281,41.91 -23.012,57.383 -15,16.718 -42.148,26.097 -78.519,26.097 H 777.07 V 441.09 h 140.86 c 53.91,0.82 97.5,41.601 97.5,91.562 -0.08,36.368 -12.89,62.348 -55.899,82.578 z M 906.129,496.789 h -61.008 v 208.91 h 42.5 c 19.098,-0.898 34.098,-16.758 33.899,-35.859 0,-18.711 -15.192,-33.867 -33.899,-33.828 h -22.113 v -57.461 h 40.621 c 54.73,0 54.73,-82.031 0,-82.031 z m -691.25,169.379 c -0.231,25.234 -10.5,49.371 -28.551,67.07 -18.008,17.692 -42.348,27.5 -67.617,27.262 H 2.03125 V 441.09 H 69.8789 V 705.699 H 105 c 23.828,0.821 43.711,-18.047 44.102,-41.879 -1.051,-23.859 -21.094,-42.5 -45,-41.75 H 88.3594 V 545.621 L 155.859,441.09 h 79.493 l -93.75,133.398 c 42.699,9.922 73.007,47.852 73.277,91.68 z M 333.52,647.418 C 275.66,645.852 229.57,598.512 229.57,540.66 c 0,-57.89 46.09,-105.23 103.95,-106.801 44.488,0 79.14,20.121 97.07,51.602 l -51.84,23.949 c -7.5,-15.16 -23.09,-24.609 -39.961,-24.219 -23.09,-1.011 -42.578,16.95 -43.437,40.039 v 2.192 h 140.546 c 0.43,4.258 0.622,8.508 0.582,12.808 0.981,69.301 -44.679,107.188 -102.96,107.188 z m -38.399,-83.637 c -0.98,22.192 16.758,40.707 38.981,40.707 22.187,0 39.918,-18.515 38.949,-40.707 z M 690,441.09 V 775.891 H 626.172 V 617.422 c -16.953,17.109 -40.043,26.789 -64.141,26.91 -52.5,0 -95.39,-46.723 -95.39,-104.332 0,-57.578 42.769,-104.77 95.39,-104.77 24.34,0.2 47.539,10.2 64.449,27.661 v -22.5 z M 580.121,490 c -25.781,0 -46.801,22.93 -46.801,51.211 0,28.277 21.02,51.519 46.801,51.519 25.82,0 46.871,-22.968 46.871,-51.289 C 626.992,513.082 606.02,490 580.121,490" /><path
         id="path74"
         style="fill:#f5d618;fill-opacity:1;fill-rule:nonzero;stroke:none"
         d="m 2365.74,614.762 c 0,-120.352 -97.58,-217.93 -217.97,-217.93 -120.35,0 -217.93,97.578 -217.93,217.93 0,120.39 97.58,217.968 217.93,217.968 120.39,0 217.97,-97.578 217.97,-217.968" /><path
         id="path76"
         style="fill:#f5d618;fill-opacity:1;fill-rule:nonzero;stroke:none"
         d="m 2719.41,468.82 c 0,0.551 -0.58,1.289 -0.82,1.719 -0.23,0.473 -0.35,2.5 -0.5,3.91 -0.32,3.551 -1.1,7.071 -2.35,10.43 -2.46,5.43 -7.42,9.371 -13.28,10.512 -0.31,1.789 -1.01,3.511 -2.07,5 -3.63,4.64 -8.09,8.589 -13.12,11.558 -1.02,0.621 -1.96,1.289 -2.86,2.031 l -1.13,0.821 c -2.65,2.109 -5.94,3.238 -9.3,3.238 -5.93,-0.508 -11.4,-3.469 -15,-8.199 -0.62,1.68 -1.64,5.551 -2.26,7.5 -0.59,1.949 -1.56,5.781 -2.38,8.051 -0.82,2.218 0,0.5 0,0.89 -2,7.5 -7.97,13.289 -15.55,15 -2.74,0.399 -5.47,0.629 -8.24,0.668 -2.58,-0.039 -5.12,0.43 -7.5,1.442 0,0.429 0.39,1.179 0.82,2.308 0.9,2.071 1.64,4.223 2.18,6.371 2.62,8.821 3.29,18.082 1.96,27.141 2.62,-0.391 5.27,-0.582 7.93,-0.582 8.79,0.043 17.46,1.832 25.51,5.23 h 0.46 c 18.09,8.364 29.77,26.371 30,46.293 v 0.586 c -1.79,18.633 -12.14,36.172 -31.6,53.551 5.35,1.332 10.39,3.481 15,6.449 14.03,9.453 20.12,26.403 16.68,46.442 v 1.332 c -1.05,10 -13.08,14.418 -20.35,7.5 l -1.41,-1.332 c -1.13,-1.129 -2.34,-2.149 -3.59,-3.078 -3.87,-1.762 -7.93,-2.973 -12.11,-3.602 -3.83,-0.738 -7.58,-1.719 -11.29,-2.93 -17.42,-5.968 -28.44,-15 -32.73,-27.961 -2.46,-8.48 -1.29,-17.578 3.16,-25.199 l 0.39,-0.59 c 5.35,-7.5 11.53,-14.371 18.44,-20.5 9.38,-8.988 18.28,-17.539 20.12,-27.738 0,-1.871 0.9,-5.23 -5.35,-9.961 -3.01,-1.48 -6.33,-2.23 -9.65,-2.109 -5.82,0.078 -11.53,1.488 -16.68,4.097 -7.89,4.223 -15.59,8.911 -22.93,14.032 -12.15,8.859 -25.47,15.968 -39.61,21.089 -6.49,2.579 -13.2,4.45 -20.12,5.622 -7.42,0.898 -14.57,3.48 -20.9,7.5 l -0.74,0.507 -6.99,4.961 c -7.31,5.942 -15.59,10.43 -24.53,13.36 -3.28,1.019 -6.64,1.722 -10.04,2.109 -2.62,0.043 -5.2,0.742 -7.5,1.961 l -4.73,3.43 c -6.48,5 -13.32,9.5 -20.55,13.359 -12.14,5.629 -25,9.652 -38.16,11.992 -1.44,1.18 -2.73,2.5 -3.83,3.989 -2.19,3.121 -4.84,5.898 -7.81,8.32 -10.31,9.371 -23.59,14.801 -37.5,15.351 -1.37,0.079 -2.7,0.079 -4.06,0 -8.48,-1.211 -16.37,-5.121 -22.5,-11.171 -11.45,-10.04 -23.91,-19.02 -35.98,-27.809 -19.8,-13.359 -38.12,-28.711 -54.76,-45.82 -17.62,-18.25 -24.07,-40.942 -30,-60.981 l -2.7,-9.019 c -1.48,-5.469 -2.93,-11.18 -4.26,-16.641 -6.91,-27.82 -13.51,-54.07 -39.45,-70.941 -4.18,-2.618 -6.49,-7.418 -5.94,-12.309 0.59,-4.918 3.83,-9.098 8.48,-10.859 3.2,-1.129 6.56,-1.68 9.96,-1.68 0.19,-2.77 1.33,-5.391 3.16,-7.5 2.85,-3.16 6.96,-4.961 11.25,-4.922 h 0.43 c 17.93,0 30.71,10.352 41.64,20.981 4.18,-4.059 9.34,-6.95 15,-8.399 h 3.75 c 5.94,1.02 11.92,1.488 17.93,1.367 5.24,-1.597 10.67,-3.597 16.06,-5.629 4.02,-1.597 8.32,-3.16 12.58,-4.648 l 2.18,-0.621 h 1.88 c 8.98,1.25 16.72,6.871 20.7,15 l 0.51,0.781 v 0.82 c 0.43,0.86 0.78,1.797 0.98,2.77 l 0.78,-2.5 c 1.09,-5.391 3.4,-10.5 6.64,-15 3.28,-3.781 8.04,-5.93 13.08,-5.82 1.64,0 3.28,0.16 4.93,0.429 h 0.54 l 0.59,-0.582 c 2.69,-3.238 6.21,-5.707 10.19,-7.066 4.73,-1.57 9.53,-2.852 14.26,-4.031 5.78,-1.403 11.45,-3.121 17.03,-5.192 h 0.59 c 4.41,-1.64 9.02,-2.539 13.75,-2.617 5.94,-0.043 11.72,2.148 16.17,6.129 5.27,4.141 8.99,9.93 10.51,16.449 1.21,0.192 2.38,0.512 3.51,0.899 7.97,2.621 15.75,17.3 15.82,17.382 0.55,1.02 1.14,1.989 1.76,2.93 1.88,2.738 2.89,5.981 2.89,9.301 -0.04,7.648 -6.17,13.828 -13.79,13.937 h -21.52 c -1.76,-0.109 -3.48,-0.429 -5.16,-0.968 v 0.39 c -1.13,1.442 -2.34,4.571 -3.98,5.391 h 0.51 l 4.22,-0.434 h 8.16 c 8.95,0.192 17.81,1.25 26.56,3.082 7.46,0.821 15,1.02 22.5,0.59 h 2.78 c 3.12,0 6.36,0 9.88,-0.59 3.55,-0.621 7.5,-0.699 11.48,-0.699 h 4.22 c 3.71,0.16 7.38,0.781 10.94,1.949 0.35,-1.871 0.74,-4.179 1.33,-6.949 l 0.54,-2.422 c 1.8,-13.047 9.22,-24.609 20.32,-31.719 l 2.34,-1.48 c 6.17,-4.848 13.52,-7.969 21.29,-9.109 3.63,-0.43 7.3,-0.27 10.86,0.468 13.91,2.661 28.24,-0.66 39.53,-9.136 l 1.06,-0.703 c 1.28,-0.821 2.5,-1.758 3.59,-2.77 3.09,-2.859 6.68,-5.16 10.59,-6.762 3.04,-1.168 6.25,-1.836 9.53,-1.879 4.41,-0.078 8.75,1.141 12.5,3.481 l 1.21,-1.719 c 2.18,-3.199 4.72,-6.172 7.5,-8.871 5.39,-4.762 12.46,-7.219 19.65,-6.828 h 13.36 c 1.05,0.078 2.1,0.269 3.16,0.539 2.03,-1.481 4.49,-2.301 7.03,-2.34 1.13,0 2.31,0.199 3.4,0.551 l 12.42,4.019 c 3.52,1.09 6.41,3.629 7.89,6.989 2.23,5.429 1.72,11.64 -1.37,16.64 z m -393.2,61.879 -0.9,1.442 c -0.39,0.511 -0.82,1.097 -1.29,1.879 -1.68,2.339 -3.12,4.839 -4.25,7.5 3.75,0 7.5,-0.782 11.83,-0.899 z m -185.43,-16.41 -6.52,3.211 c -5.71,4.371 -10.31,10 -13.4,16.52 -1.88,3.121 -3.83,6.441 -6.02,9.453 -2.14,2.808 -4.68,5.308 -7.5,7.5 l -1.32,1.25 c -8.48,21.289 -13.99,43.597 -16.37,66.367 -1.13,8.199 -3.83,16.051 -7.89,23.281 -11.8,17.461 -24.69,34.18 -38.6,50 l -3.67,3.668 -46.29,38.481 -0.66,0.55 c -6.29,4.84 -13.36,8.59 -20.86,11.168 -13.2,4.18 -27.46,3.672 -40.35,-1.449 l -0.74,-0.348 c -3.99,-2.109 -7.5,-4.492 -11.41,-6.832 -4.96,-3.48 -10.35,-6.371 -15.98,-8.636 l -0.97,-0.352 c -4.93,-1.992 -9.93,-3.75 -15,-5.191 -12.31,-2.899 -23.79,-8.559 -33.6,-16.571 l -6.29,-5.929 c -2.5,-2.309 -4.8,-4.5 -5.78,-5.16 h -1.95 c -15.74,0.55 -31.09,-4.809 -43.05,-15 l -0.47,-0.391 c -6.75,-6.988 -14.76,-12.617 -23.63,-16.559 -3.98,-1.14 -8.08,-1.84 -12.23,-2.109 h -0.43 c -5.7,-0.32 -11.36,-1.18 -16.87,-2.621 -13.2,-4.41 -25.39,-11.52 -35.7,-20.86 -4.57,-3.519 -7.5,-5.699 -8.71,-6.519 l -2.93,-1.801 c -9.57,-6.988 -20.86,-11.211 -32.7,-12.23 h -0.51 c -6.48,0.55 -12.07,4.691 -14.49,10.711 -1.91,7.609 0.55,15.699 6.37,20.929 3.9,3.91 8.55,7.5 13.01,11.641 7.77,6.019 14.84,12.969 21.05,20.629 8.67,12.539 7.85,29.34 -2.03,40.941 -8.79,7.848 -19.65,13.039 -31.25,15 h -0.9 l -1.95,0.387 h -0.63 l -3.51,0.582 c -2.03,0.391 -3.99,0.75 -5.78,1.211 -4.07,1.488 -7.86,3.598 -11.25,6.289 -2.86,2.07 -5.86,3.949 -8.91,5.711 l -8.63,4.57 -5.32,-8.172 c -4.06,-6.289 -5.89,-13.707 -5.19,-21.168 v -0.589 c 2.97,-15.582 13.2,-28.821 27.54,-35.622 l 1.48,-0.589 c 3.01,-1.25 6.21,-1.95 9.46,-2.18 -7.82,-6.488 -15,-13.711 -21.45,-21.531 -11.64,-15.078 -14.45,-35.149 -7.5,-52.891 7.89,-18.508 25.04,-31.398 45,-33.898 3.01,-0.43 6.05,-0.668 9.06,-0.668 5.04,0.078 10.08,0.629 15,1.636 0.39,-7.5 0.63,-12.418 1.14,-15.429 1.48,-6.207 3.47,-12.219 6.01,-18.078 v -0.43 c -3.63,-2.231 -7.5,-3.992 -11.56,-5.281 -2.93,-0.352 -6.21,-0.5 -8.63,-0.661 h -3.68 c -3.47,-0.429 -6.75,-1.992 -9.29,-4.41 -3.64,-4.418 -6.37,-9.539 -8.01,-15 -1.06,-2.781 -2.19,-5.629 -3.32,-8.05 -0.98,-1.411 -2.23,-2.7 -3.6,-3.75 -1.75,2.929 -4.02,5.468 -6.75,7.5 -5.24,3.75 -12.23,3.75 -17.46,0 l -2.43,-1.559 -0.58,-0.391 c -3.87,-2.461 -7.62,-5.199 -11.17,-8.09 -2.74,-2.421 -4.65,-5.66 -5.47,-9.218 -0.98,-0.153 -1.88,-0.391 -2.78,-0.742 -7.3,-3.09 -12.53,-9.649 -13.94,-17.418 0,-2.622 -0.63,-7.5 -0.98,-8.993 l -0.7,-0.738 c -4.88,-5.312 -4.88,-13.48 0,-18.75 6.33,-3.98 13.4,-6.562 20.78,-7.5 h 3.32 c 0.82,0.231 1.64,0.551 2.38,0.981 h 3.32 c 2.07,-0.282 4.11,-0.672 6.14,-1.141 4.14,-1.051 8.36,-1.641 12.61,-1.711 4.65,-0.039 9.22,1.051 13.32,3.199 5.86,3.203 10.55,8.121 13.44,14.102 0.74,1.289 1.49,2.621 2.27,3.672 h 1.17 c 2.3,-0.703 4.69,-1.133 7.07,-1.332 9.8,0.039 19.3,3.558 26.76,9.89 1.95,1.559 3.83,3.321 5.54,4.957 1.76,1.723 3.6,3.282 5.55,4.723 2.31,0.82 4.73,1.219 7.15,1.141 5.2,-0.2 10.35,-0.864 15.43,-1.961 9.84,-2.61 20.31,-1.442 29.34,3.289 4.41,2.461 8.86,4.8 12.46,6.679 l 0.58,0.391 c 1.96,0.973 3.67,1.871 5.04,2.691 8.13,5.43 14.49,13.09 18.44,22.032 1.87,3.75 4.73,10.668 5.47,12.617 h 2.42 c 5.39,0.16 10.78,0.699 16.13,1.64 3.05,0.59 6.17,1.02 9.3,1.211 h 3.44 c 5.04,0 12.3,-0.621 17.77,-1.211 5.47,-0.589 7.5,-0.898 13.71,-1.21 h 9.1 c 5.2,0 10.31,1.171 15,3.48 1.1,-1.141 3.05,-3.828 4.34,-4.969 h -0.51 c -3.79,0.039 -7.42,-1.48 -10.08,-4.211 -4.57,1.52 -9.45,1.95 -14.22,1.211 -5.97,-0.551 -11.87,-1.449 -17.73,-2.699 -4.34,-0.66 -8.01,-3.473 -9.81,-7.5 -1.91,-4.371 -1.64,-9.371 0.75,-13.512 3.16,-5.629 6.21,-10.711 9.45,-16.097 l 1.41,-2.422 c 2.73,-4.41 7.65,-6.949 12.85,-6.602 h 3.44 c 0.23,-0.347 0.42,-0.738 0.58,-1.129 2.54,-5.121 6.06,-9.691 10.35,-13.398 8.25,-6.57 19.14,-8.602 29.18,-5.473 14.07,4.024 27.74,9.262 40.9,15.66 h 5.39 c 7.23,-0.109 14.26,2.582 19.57,7.5 l 0.59,0.59 0.47,0.742 c 2.38,3.52 4.65,7.032 6.75,10.59 v -1.293 c 3.32,-8.316 11.57,-13.629 20.55,-13.238 h 0.43 c 8.2,0.621 16.29,2.57 23.87,5.738 h 0.43 l 3.01,1.051 h 0.7 c 7.11,2.391 14.76,2.781 22.11,1.141 h 2.38 c 8.75,0.929 16.95,4.57 23.48,10.422 11.44,-12.301 27.61,-19.102 44.41,-18.672 h 5.7 c 5.55,1.14 9.73,5.82 10.2,11.492 0.12,1.09 0.12,2.18 0,3.277 l 3.16,0.551 c 5.36,1.129 9.5,5.43 10.43,10.852 1.02,5.429 -1.64,10.859 -6.56,13.437 z m -152.69,29.301 -1.57,-1.41 c -3.59,-3.039 -6.79,-6.52 -9.53,-10.348 -2.03,3.52 -3.44,6.059 -4.57,8.398 4.61,0.7 9.1,1.993 13.36,3.829 h 2.46 l -0.15,-0.469" /><path
         id="path78"
         style="fill:#ed1b4f;fill-opacity:1;fill-rule:nonzero;stroke:none"
         d="m 1598.4,486.52 h -0.59 c -3.59,-1.52 -6.33,-4.571 -7.5,-8.321 -0.9,-11.41 -1.21,-12.578 -4.29,-16.058 -0.9,-0.969 -1.49,-3.2 -0.51,-4.18 4.26,-1.91 8.71,-3.391 13.28,-4.449 0.98,0 1.8,2.847 4.02,10.738 1.21,4.223 2.66,8.988 4.14,13.359 0,0 0,0.672 -0.9,2.114 -0.89,1.406 -5.27,6.797 -7.65,6.797 z m 12.38,0 c 1.13,-1.02 2.58,-1.598 4.1,-1.641 1.25,0.043 2.46,0.351 3.56,0.973 5.54,4.07 10.04,9.418 13.12,15.589 0.67,1.879 -1.52,3.629 -4.29,5.782 -1.49,0.976 -3.4,0.976 -4.89,0 l -3.04,-2.032 c -3.56,-2.261 -6.96,-4.8 -10.2,-7.5 -1.29,-1.25 -2.07,-2.929 -2.19,-4.73 -0.15,-0.973 0.08,-1.988 0.67,-2.852 1.01,-1.168 2.07,-2.339 3.16,-3.429 z m 525,18.089 -6.91,3.43 c -7.46,5.16 -13.44,12.191 -17.39,20.352 -1.79,2.968 -3.67,6.058 -5.62,8.91 -1.68,2.07 -3.52,3.98 -5.55,5.699 -1.4,1.102 -2.65,2.391 -3.67,3.832 -9.14,22.699 -15.04,46.559 -17.58,70.859 -1.01,6.598 -3.24,12.969 -6.52,18.75 -11.49,16.879 -24.02,33.008 -37.5,48.321 -0.9,0.976 -1.88,1.879 -2.7,2.699 l -0.66,0.66 -45.59,37.891 c -5.54,4.297 -11.75,7.656 -18.39,9.879 -4.61,1.609 -9.46,2.39 -14.34,2.347 -6.25,0 -12.42,-1.168 -18.2,-3.515 -3.6,-1.953 -7.5,-4.223 -10.59,-6.403 -5.7,-3.988 -11.91,-7.269 -18.44,-9.73 -5.19,-2.231 -10.51,-4.102 -15.9,-5.629 -10.78,-2.5 -20.85,-7.379 -29.49,-14.332 l -6.21,-5.777 c -7.5,-7.5 -8.63,-8.09 -15,-8.09 -13.28,0.547 -26.29,-3.942 -36.37,-12.621 -7.77,-8 -17.07,-14.371 -27.3,-18.75 -4.88,-1.442 -9.92,-2.301 -15,-2.61 -5.39,-0.281 -10.74,-1.101 -15.98,-2.461 -11.79,-4.14 -22.65,-10.55 -31.95,-18.91 -3.24,-2.461 -7.5,-5.781 -9.45,-7.07 l -3.36,-2.07 c -11.17,-8.047 -24.34,-12.77 -38.05,-13.75 h -1.05 c -10.9,0.859 -20.32,8.011 -24.07,18.32 -3,11.332 0.43,23.441 8.99,31.48 4.22,4.219 9.02,8.25 13.67,12.153 7.46,5.586 14.3,11.988 20.39,19.058 5.66,8.481 5.12,19.649 -1.37,27.539 -7.5,6.02 -16.44,10.082 -25.93,11.762 h -0.9 l -2.03,0.391 c -3.36,0.668 -6.61,1.097 -9.97,1.918 -7.96,3.429 -15.5,7.769 -22.5,12.929 -2.81,-4.34 -4.06,-9.5 -3.51,-14.652 2.3,-12.027 10.19,-22.266 21.21,-27.578 l 1.29,-0.551 c 3.2,-1.207 6.64,-1.789 10.12,-1.637 h 4.18 c 2.26,0.078 4.49,-0.121 6.68,-0.582 2.34,-0.711 4.06,-2.699 4.37,-5.121 0,-1.488 -0.47,-2.617 -2.42,-4.097 l -5.31,-4.461 c -9.42,-7.262 -18.09,-15.461 -25.9,-24.45 -9.18,-12.109 -11.41,-28.121 -5.82,-42.3 6.48,-14.891 20.43,-25.239 36.6,-27.071 2.46,-0.39 4.96,-0.59 7.5,-0.59 7.93,0.309 15.78,1.641 23.4,3.911 h 0.74 c 0.35,0 0.98,0 1.13,-1.719 0,-3.32 0.35,-7.5 0.51,-10.82 0,-5.981 0.55,-11.602 0.98,-14.032 1.33,-5.5 3.12,-10.89 5.39,-16.129 0.78,-1.8 1.36,-3.203 1.6,-3.871 0.66,-2.34 0.08,-4.84 -1.6,-6.597 -5.74,-4.532 -12.35,-7.813 -19.42,-9.692 -3.43,-0.461 -7.5,-0.582 -9.76,-0.742 h -2.97 c -1.25,-0.109 -2.38,-0.66 -3.24,-1.519 -2.39,-3.52 -4.22,-7.34 -5.47,-11.411 -1.29,-3.199 -2.54,-6.519 -3.83,-9.218 -4.02,-5.621 -9.41,-10.11 -15.66,-13.039 l -4.38,-2.543 c -2.15,-3.789 -4.84,-7.27 -8.01,-10.278 -2.42,-1.949 -5.39,-3.043 -8.47,-3.16 -4.07,-5.621 -6.68,-12.23 -7.5,-19.101 l -0.67,-3.09 v -0.969 h 0.59 c 2.54,-0.281 5.04,-0.75 7.5,-1.371 3.4,-0.781 6.87,-1.289 10.35,-1.41 2.97,-0.071 5.9,0.629 8.55,2.031 3.99,2.269 7.15,5.789 8.99,9.969 1.41,2.73 3.12,5.23 5.19,7.5 1.18,1.359 2.93,2.101 4.73,2.031 1.84,-0.121 3.63,-0.43 5.39,-0.981 1.64,-0.507 3.32,-0.82 5.04,-0.98 7.19,0.16 14.1,2.82 19.57,7.5 1.64,1.371 3.28,2.859 4.88,4.34 2.31,2.34 4.81,4.492 7.5,6.41 3.83,1.68 8.01,2.461 12.19,2.301 6.02,-0.192 11.95,-0.899 17.81,-2.192 2.74,-0.738 5.59,-1.089 8.44,-1.089 4.65,-0.079 9.22,1.05 13.28,3.281 4.53,2.539 9.1,4.961 12.78,6.91 l 5.46,2.93 c 6.14,4.539 11.02,10.55 14.11,17.539 1.95,3.75 5.23,12.07 5.23,12.152 v 0.391 l -7.5,5.738 v -0.5 c -2.54,-4.18 -5.27,-8.211 -8.24,-12.07 -13.36,-18.25 -35.16,-20.551 -52.5,-20.551 h -3.67 c -19.61,0.859 -38.56,-7.07 -51.76,-21.602 -0.59,-0.586 -1.52,-0.586 -2.11,0 -0.24,0.512 -0.24,1.051 0,1.563 0.27,1.289 0.78,2.5 1.44,3.59 13.56,19.218 36.68,22.07 55.36,22.5 11.21,0.238 22.26,2.781 32.46,7.5 10.7,6.371 18.71,16.449 22.5,28.289 1.95,6.64 3.36,13.39 4.22,20.269 0.7,5.391 1.71,10.742 3,16.012 0.2,0.668 0.82,1.059 1.49,1.059 h 0.51 c 0.78,0 2.11,-0.668 2.11,-1.719 -3.29,-12.301 -3.13,-25.27 0.39,-37.5 2.85,-5.469 8.9,-8.481 15,-7.5 4.84,0.16 9.68,0.699 14.45,1.558 3.44,0.672 6.95,1.102 10.43,1.293 1.33,0.078 2.66,0.078 3.98,0 5.9,-0.191 11.8,-0.972 17.54,-2.3 4.96,-1.141 9.96,-1.922 15,-2.352 h 8.64 c 3.47,-0.27 6.95,0.672 9.84,2.699 1.56,1.371 1.01,3.321 0,5.781 v 0.469 c 0,0.352 0,0.903 -0.47,1.332 -0.98,3.321 -2.54,8.239 0,10.5 0.43,0.278 0.9,0.43 1.41,0.43 0.54,0.078 1.05,-0.231 1.21,-0.738 0,-0.973 0.62,-1.871 0.82,-2.852 0.93,-4.101 2.58,-8.012 4.88,-11.519 6.52,-7.821 14.61,-14.141 23.71,-18.641 8.17,-4.801 13.67,-13.082 15,-22.5 0,-4.762 -4.65,-8.16 -8.12,-10.27 -5.98,-3.203 -12.54,-5.16 -19.34,-5.742 -2.38,0.192 -4.69,1.09 -6.6,2.539 -5.31,4.961 -4.73,6.602 -8.17,12.461 -1.83,3.203 -3.94,6.25 -6.21,9.141 -3.32,3.672 -8.28,5.39 -13.12,4.57 -5.55,-0.508 -11.06,-1.41 -16.45,-2.699 -1.17,-0.231 -2.15,-0.973 -2.69,-2.031 -0.59,-1.25 -0.59,-2.731 0,-3.981 3.16,-5.469 6.13,-10.59 9.3,-15.898 l 1.4,-2.301 c 0.9,-1.18 2.34,-1.719 3.75,-1.527 h 5.04 c 2.11,0.277 4.18,-0.473 5.63,-2.032 0.97,-1.48 1.87,-3.05 2.69,-4.57 1.76,-3.91 4.34,-7.461 7.5,-10.351 3.63,-3.047 8.24,-4.649 12.97,-4.571 2.15,0 4.22,0.313 6.25,0.981 14.3,4.019 28.2,9.371 41.48,16.05 h 7.27 c 4.61,-0.269 9.14,1.211 12.66,4.219 4.14,6.012 7.81,12.34 11.01,18.871 2.85,5 2.85,11.09 0,16.051 -5.55,8.129 -10.04,16.949 -13.32,26.25 l -3.01,1.059 c -2.11,0.972 -4.37,1.558 -6.68,1.64 -2.22,0.27 -4.45,-0.75 -5.7,-2.621 l 15,-30 c 1.37,-2.5 1.88,-5.39 1.52,-8.238 -2.38,-6.211 -5.89,-11.922 -10.35,-16.801 -0.39,-0.308 -0.86,-0.508 -1.37,-0.59 0,0 -0.97,0 -0.46,1.918 1.79,6.563 2.69,13.321 2.81,20.121 -3.99,9.141 -8.67,17.961 -13.99,26.403 -2.3,3.008 -3.63,6.679 -3.82,10.508 0.19,1.601 1.32,3.011 2.85,3.511 2.19,0.707 4.41,1.25 6.68,1.649 5.43,1.211 11.05,2.461 13.04,5.461 6.22,10.082 10.2,21.371 11.65,33.089 0,0.59 0.5,1.719 1.36,1.719 0.82,0 0.98,0 1.17,-1.25 2.23,-12.89 -0.78,-26.129 -8.39,-36.758 -0.51,-0.902 -0.67,-1.91 -0.51,-2.929 0.27,-0.782 0.74,-1.442 1.4,-1.953 7.31,-1.598 14.97,-0.43 21.45,3.281 5.7,0.039 11.41,0.699 16.95,1.949 l 5.12,0.902 c 0.47,-0.23 0.86,-0.66 1.05,-1.171 -4.53,-5.161 -7.57,-11.45 -8.78,-18.168 -1.29,-1.282 -2.62,-2.614 -4.07,-3.821 -5.47,-3.832 -9.25,-9.609 -10.54,-16.211 -0.08,-1.332 0.97,-2.5 2.3,-2.539 0.94,0.039 1.84,0.309 2.62,0.739 0.82,0.429 1.72,0.66 2.65,0.621 0.79,-0.11 1.37,-0.782 1.41,-1.602 l -5.62,-8.316 c -1.65,-3.364 -1.8,-7.301 -0.36,-10.782 0.59,-1.953 0,-3.55 0.9,-5.269 1.92,-3.992 6.06,-6.41 10.47,-6.141 7.15,0.668 14.1,2.391 20.7,5.16 l 3.56,1.211 c 8.94,3.278 18.71,3.95 28.05,1.879 8.67,1.52 16.6,5.93 22.5,12.539 3.47,-0.429 6.68,-2.23 8.82,-5.039 9.46,-10.39 23.01,-16.172 37.07,-15.75 h 3.21 c 1.6,0 2.03,1.141 2.11,2.11 0.07,0.98 -0.82,2.308 -2.46,3.129 l -8.48,4.492 c -7.07,3.437 -12.74,9.14 -16.13,16.211 -2.31,6.879 -5.39,13.437 -9.22,19.566 l -1.96,2.852 c -1.25,1.679 -2.38,3.48 -3.32,5.359 9.22,-3.32 14.34,-10.16 20.55,-21.41 5.9,-10.078 16.37,-16.602 28.01,-17.539 1.44,0 2.93,0.16 4.33,0.551 1.41,-0.161 2.66,0.929 2.7,2.378 0.08,0.942 -0.55,1.758 -1.41,2.032 z M 1972.5,640.582 c 0,-0.902 -0.82,-1.441 -1.41,-1.441 -0.62,0 -0.93,0 -1.13,1.289 -1.13,8.199 -3.36,16.172 -6.6,23.781 -0.86,1.641 -1.88,3.168 -3.01,4.648 -2.03,2.782 -3.83,5.161 -1.8,8.481 0.86,1.09 2.19,1.68 3.6,1.562 0.74,0 1.48,-0.152 2.19,-0.429 3.16,-2.114 5.62,-5.153 6.95,-8.711 3.36,-9.371 3.79,-19.571 1.21,-29.18 z m 76.56,-121.441 c -0.11,-1.762 -0.82,-3.481 -1.95,-4.852 -3.24,-1.68 -6.84,-2.418 -10.47,-2.18 -3.01,0 -4.06,0.5 -4.73,1.481 -0.7,0.98 0.43,3.09 0.43,3.09 2.23,4.722 6.25,8.39 11.18,10.109 1.44,0.551 3.04,0.551 4.49,0 1.83,-1.559 0.86,-6.789 0.7,-7.648 z m 20.86,47.929 c -0.15,-1.679 -0.62,-3.289 -1.4,-4.808 -0.51,-1.289 -1.76,-2.153 -3.17,-2.153 -2.26,0 -2.11,2.7 -2.19,3.09 -0.04,3.59 -0.62,7.192 -1.64,10.621 -1.56,3.403 -9.14,13.051 -13.43,12.7 -2.47,-0.821 -4.57,-2.461 -6.06,-4.571 -2.54,-3.32 -2.54,-3.711 -3.4,-4.219 -0.82,-0.507 -1.79,0 -2.07,1.719 -0.74,2.461 -0.74,5.039 0,7.5 0.67,2.621 1.64,5.121 2.93,7.5 0,0 2.23,5.274 3.05,6.524 1.13,1.988 3.2,3.238 5.47,3.316 2.58,0.082 5.04,-1.168 6.48,-3.316 1.41,-1.602 2.58,-3.403 3.52,-5.313 1.37,-2.148 2.93,-4.18 4.72,-6.019 3.09,-3.629 5.36,-7.93 6.68,-12.5 0.75,-3.321 0.79,-6.75 0.12,-10.071 z m -180.39,-61.097 c 1.33,-2.114 2.46,-4.332 3.4,-6.602 1.72,-3.832 3.2,-7.148 4.96,-7.5 0.82,-0.121 1.64,-0.121 2.46,0 4.92,0.309 9.57,2.149 13.44,5.238 2.23,1.871 1.48,3.082 0.51,4.801 -0.39,0.621 -0.75,1.289 -1.06,1.949 -0.94,1.961 -1.64,3.993 -2.15,6.063 -1.13,3.828 -2.11,7.5 -6.17,6.519 -5.94,-0.82 -11.91,-1.211 -17.93,-1.171 0,0 -2.11,0 -2.69,-1.45 -0.59,-1.398 0.9,-3.082 2.54,-4.64 0.93,-0.981 1.71,-2.071 2.34,-3.207 z m 820.31,-41.641 c -0.62,1.168 -1.13,2.418 -1.52,3.668 -0.35,1.723 -0.59,3.602 -0.82,5.32 -0.2,2.571 -0.74,5.071 -1.56,7.5 -1.33,2.61 -3.99,4.289 -6.92,4.371 -0.97,-0.039 -1.95,-0.23 -2.85,-0.621 -4.26,-2.148 -6.83,-4.418 -6.05,-9.3 2.03,-6.211 3.71,-12.54 5,-18.95 0,-1.05 0.9,-4.531 2.54,-4.531 h 0.39 l 12.3,4.063 c 0.59,0.199 1.06,0.589 1.37,1.136 0.66,1.871 -0.63,4.653 -1.88,7.344 z m -18.24,30 c -2.85,3.52 -6.29,6.488 -10.19,8.789 -1.41,0.82 -2.74,1.758 -3.99,2.77 l -0.66,0.511 c -0.82,0.668 -1.8,1.059 -2.85,1.059 -3.68,-0.473 -6.84,-2.891 -8.25,-6.289 0,-2.352 3.21,-6.531 7.5,-11.723 l 0.9,-1.129 c 1.72,-2.308 4.26,-3.832 7.11,-4.261 2.5,0.043 4.92,1.05 6.68,2.851 1.8,1.801 5.31,5.469 3.75,7.731 z m -288.44,17.93 c -2.22,-0.313 -4.45,-0.473 -6.68,-0.473 h -6.09 c -1.17,0.121 -2.38,0.121 -3.59,0 -2.35,-3.828 -3.68,-8.16 -3.91,-12.648 0.63,-5.121 5.86,-6.18 9.84,-7 1.53,-0.352 3.13,-0.539 4.73,-0.582 2.31,-0.278 4.53,0.82 5.7,2.851 2,5.078 3.48,10.391 4.34,15.82 0.23,0.469 0.23,1.02 0,1.481 -0.74,0.711 -1.76,1.059 -2.77,0.98 z m 278.75,-36.25 v 0.39 h -0.35 c -7.15,-0.429 -11.56,5.309 -15.78,10.86 -1.4,1.84 -2.77,3.629 -4.18,5.117 -2.11,2.344 -4.41,4.57 -6.83,6.601 -2.15,1.602 -3.99,3.551 -5.47,5.782 -1.29,3.277 -2.35,6.64 -3.17,10.039 -0.74,2.769 -1.4,5.39 -2.07,7.5 l -0.47,1.129 c -1.25,3.441 -2.85,7.5 -7.5,8.402 -2.3,0.348 -4.64,0.547 -6.95,0.59 -6.05,-0.551 -11.99,1.68 -16.21,6.008 -2.38,3.793 -2.38,8.601 0,12.39 0.74,1.641 1.33,3.391 1.72,5.153 2.46,7.777 2.93,16.058 1.37,24.097 -0.28,1.102 -0.59,2.153 -0.98,3.211 -1.13,2.649 -1.56,5.539 -1.29,8.399 0.47,1.05 1.56,1.672 2.7,1.519 1.25,-0.078 2.5,-0.308 3.67,-0.699 0.82,0 1.52,0 2.34,-0.59 4.02,-1.019 8.2,-1.558 12.38,-1.64 7.31,0 14.57,1.519 21.29,4.41 14.3,6.449 23.6,20.55 23.91,36.211 -1.56,17.039 -12.07,33.398 -32.07,50.199 l -1.52,1.25 c -2.62,2.109 -5.71,4.801 -5.79,7.5 -0.07,2.73 6.18,3.828 10.08,4.73 l 2.39,0.621 h 1.05 c 5.04,1.059 9.88,2.93 14.34,5.629 14.21,9.571 13.71,26.442 12.07,35.782 0,0.269 0,0.578 0,0.898 0,1.168 -0.63,2.691 -1.72,2.691 -0.39,-0.039 -0.78,-0.191 -1.06,-0.468 l -1.36,-1.25 c -1.68,-1.723 -3.52,-3.203 -5.55,-4.453 -4.69,-2.418 -9.77,-4.102 -15,-4.918 -3.4,-0.672 -6.76,-1.532 -10.04,-2.582 -14.1,-4.879 -22.97,-12.071 -26.09,-21.29 -1.53,-5.699 -0.67,-11.757 2.38,-16.8 5.15,-7.34 11.13,-14.02 17.85,-19.957 10.2,-9.723 20.78,-19.883 23.16,-33.672 1.29,-8.242 -2.65,-16.41 -9.88,-20.551 -4.73,-2.691 -10.12,-4.02 -15.55,-3.898 -7.5,0.078 -14.92,1.949 -21.6,5.468 -8.32,4.45 -16.36,9.489 -24.06,15 -11.41,8.36 -23.87,15.153 -37.11,20.11 -5.94,2.39 -12.07,4.14 -18.4,5.16 -9.06,1.09 -17.73,4.34 -25.35,9.371 -2.46,1.68 -5,3.48 -7.5,5.199 -6.29,5.078 -13.48,8.981 -21.21,11.481 -2.77,0.859 -5.66,1.449 -8.55,1.8 -4.22,0.239 -8.33,1.559 -11.92,3.829 l -5.12,3.671 c -6.13,4.649 -12.61,8.829 -19.41,12.418 -11.45,5.243 -23.52,8.993 -35.94,11.211 -3.9,1.332 -7.26,3.989 -9.53,7.5 -1.76,2.348 -3.79,4.418 -6.13,6.211 -8.4,7.969 -19.34,12.699 -30.9,13.36 h -3.28 c -6.21,-1.129 -11.88,-4.141 -16.29,-8.629 -11.8,-10.274 -24.45,-19.492 -36.76,-28.36 -19.22,-13.011 -37.07,-27.929 -53.24,-44.531 -15.9,-16.371 -21.68,-36.84 -27.23,-56.641 l -2.46,-8.789 c -1.52,-5.39 -2.93,-10.941 -4.29,-16.332 -7.5,-29.179 -15,-58.359 -43.95,-77.339 -1.8,-1.059 -1.45,-3.711 0.51,-4.34 9.18,-2.692 19.02,0.242 25.23,7.5 7.5,8.91 11.45,17.543 20.31,27 0,0 1.29,1.281 2.11,0.972 0.82,-0.312 0.9,-0.511 0.59,-1.562 -1.25,-3.789 -3.2,-7.27 -5.7,-10.352 -2.39,-3.207 -4.26,-6.718 -5.55,-10.508 -3.98,-8.398 -10,-15.66 -17.54,-21.089 -0.66,-0.391 -1.21,-0.903 -1.72,-1.489 -0.7,-0.82 -0.62,-1.211 -0.62,-1.211 0,-1.8 1.29,-2.929 4.22,-3.05 16.32,0 27.96,11.609 39.21,22.5 0.51,0.429 1.18,0.711 1.88,0.668 0.59,0.152 1.21,0.152 1.8,0 1.36,-0.977 2.61,-2.071 3.82,-3.239 3.36,-3.558 7.66,-6.14 12.39,-7.5 5.54,0.969 11.17,1.481 16.79,1.602 h 4.5 c 5.93,-1.801 11.91,-4.07 17.61,-6.25 4.14,-1.563 8.32,-3.133 12.54,-4.57 5.47,0 9.38,5.269 12.23,9.757 0.98,3.012 0.98,6.293 0,9.301 -0.47,1.762 -0.66,3.59 -0.63,5.391 1.25,0.39 2.58,0.39 3.83,0 1.29,-0.121 2.58,-0.121 3.83,0 1.8,0.469 2.93,2.23 2.58,4.058 -1.29,4.731 -3.52,9.141 -6.6,12.973 -2.42,3.277 -4.38,6.918 -5.78,10.738 -2.23,4.93 -5.36,9.379 -9.3,13.129 -4.42,3.942 -7.66,8.981 -9.45,14.61 0,0 -0.39,1.211 0,1.64 0.35,0.473 1.56,0 1.56,0 1.95,-1.41 3.98,-3.09 5.86,-4.57 5.66,-5.547 12.69,-9.527 20.39,-11.488 7.62,-0.969 15.27,-1.289 22.97,-0.969 1.83,0.269 3.04,2.109 2.54,3.898 -3.4,6.801 -6.14,13.91 -8.17,21.25 -3.4,10.469 -3.94,21.68 -1.6,32.461 0.2,0.86 0.94,1.489 1.8,1.489 1.25,-0.508 2.15,-1.641 2.34,-3.008 v -1.481 c 1.13,-15.59 2.11,-30.39 11.68,-42.972 2.54,-3.559 5.86,-6.407 9.77,-8.321 2.61,-1.207 4.96,-2.886 6.99,-4.957 1.99,-2.82 2.38,-6.449 0.94,-9.609 l -11.68,-17.231 c -2.93,-3.75 -5.12,-8.011 -6.45,-12.539 -0.62,-4.179 -0.62,-8.472 0,-12.652 v -0.98 c -0.35,0.191 -0.66,0.511 -0.82,0.902 -4.37,6.207 -5.59,14.098 -3.32,21.359 1.6,3.598 11.09,17.192 13.87,21.61 0.9,1.398 1.68,2.847 0.9,3.82 -3.01,2.07 -6.37,3.519 -9.96,4.262 -1.61,-0.664 -2.93,-1.871 -3.75,-3.442 0,0 -0.36,-0.543 -0.67,-0.89 l -14.49,-26.411 v -0.98 c -1.06,-2.5 -1.37,-5.27 -0.82,-7.93 0.74,-3.898 2.03,-8.199 2.93,-11.25 l 0.74,-2.57 c 0.78,-3.988 2.31,-7.82 4.49,-11.25 1.29,-1.449 3.13,-2.23 5.04,-2.148 1.1,0.039 2.23,0.148 3.32,0.347 1.72,0.352 3.52,0.352 5.24,0 2.07,-0.738 3.9,-2.109 5.23,-3.91 1.45,-1.91 3.4,-3.359 5.63,-4.18 4.53,-1.519 9.18,-2.687 13.75,-3.898 6.17,-1.488 12.26,-3.32 18.2,-5.551 3.36,-1.211 6.87,-1.91 10.43,-2.109 3.59,0 6.99,1.371 9.61,3.828 4.1,3.203 6.8,7.891 7.5,13.051 0.9,4.961 2.54,5.308 6.21,5.461 1.25,0.039 2.5,0.238 3.67,0.629 4.1,3.32 7.46,7.539 9.77,12.3 0.7,1.289 1.48,2.582 2.3,3.789 0.78,0.942 1.17,2.114 1.13,3.321 0.04,1.961 -1.56,3.519 -3.51,3.441 h -20.63 c -6.29,0 -9.06,-6.441 -11.32,-11.84 -0.75,-1.992 -1.65,-3.941 -2.7,-5.781 -1.84,-3.16 -5.35,-5 -8.98,-4.719 -1.76,0.192 -3.44,0.539 -5.12,1.051 -8.32,2.027 -16.95,4.141 -20.47,12.379 -0.7,2.348 -0.23,4.891 1.29,6.801 4.88,6.019 10.35,11.519 16.33,16.449 8.94,2.18 16.6,7.848 21.29,15.738 0.89,1.371 1.56,2.852 1.95,4.41 0.51,2.391 1.8,4.5 3.67,6.02 1.37,0.66 2.42,0.391 2.7,-0.738 0.43,-4.379 -0.43,-8.75 -2.46,-12.621 -0.28,-0.899 -0.63,-1.797 -1.06,-2.7 v -0.66 h 0.74 c 2.27,0 4.65,-0.39 7.07,-0.39 8.28,0.23 16.57,1.21 24.69,2.929 8.01,1.68 16.17,2.66 24.38,2.852 h 2.77 c 3.67,0 7.5,0 10.78,-0.66 3.32,-0.668 6.99,-0.629 10.59,-0.629 h 3.59 c 9.02,-0.582 17.42,4.687 20.86,13.09 2.27,11.168 2.03,22.73 -0.7,33.789 0,0.461 0,0.929 0,1.359 -0.04,0.672 0.27,1.289 0.86,1.57 0.97,0.539 1.99,0 2.53,-1.25 3.56,-10.941 6.06,-22.148 7.5,-33.558 1.53,-9.453 5,-18.481 10.2,-26.524 7.73,-11.488 20.78,-18.277 34.65,-18.008 3.36,0.122 6.72,0.469 10.04,1.051 1.6,0.121 3.16,0.121 4.72,0 18.05,0.199 35.08,-8.16 45.98,-22.5 0.08,-0.23 0.08,-0.5 0,-0.742 -0.16,-0.777 -0.98,-1.207 -1.72,-0.898 l -1.56,1.179 c -9.61,9.02 -21.48,15.231 -34.38,17.93 -2.46,0.43 -4.96,0.621 -7.5,0.621 -3.78,-0.082 -7.53,-0.391 -11.32,-0.859 -3.52,-0.473 -7.07,-0.742 -10.63,-0.821 -4.18,-0.082 -8.28,0.668 -12.15,2.188 -15.39,5.043 -27.89,22.5 -31.95,33.75 -0.31,0.582 -0.9,0.973 -1.56,0.973 -0.47,0.121 -0.94,0.121 -1.37,0 -1.72,-1.129 -2.03,-1.711 -2.34,-2.852 0.43,-4.098 1.05,-8.121 1.95,-12.148 1.02,-10.7 6.84,-20.391 15.86,-26.321 5.7,-4.922 12.69,-8.172 20.16,-9.301 2.26,-0.308 4.57,-0.308 6.83,0 3.91,0.899 7.89,1.372 11.92,1.372 13.12,-0.161 25.82,-4.461 36.36,-12.231 1.84,-1.172 3.56,-2.422 5.2,-3.832 2.15,-2.148 4.69,-3.859 7.5,-5.039 1.83,-0.738 3.79,-1.129 5.78,-1.129 3.44,0.039 6.8,1.129 9.57,3.16 1.29,0.668 2.69,1.02 4.14,1.059 3.91,0 6.05,-3.09 8.83,-6.988 1.79,-2.7 3.87,-5.2 6.17,-7.5 3.44,-2.852 7.89,-4.262 12.38,-3.911 h 12.15 c 0.63,-0.039 1.29,-0.039 1.95,0 v 0.469 c -0.78,8.012 -2.89,15.86 -6.25,23.16 z m -410.23,36.679 c -1.06,-1.48 -2.85,-2.261 -4.65,-1.992 -1.87,-0.039 -3.71,0.43 -5.31,1.41 -3.13,2.422 -4.92,6.172 -4.88,10.114 -0.28,1.25 0.23,2.539 1.25,3.238 0.58,0.359 1.29,0.512 1.95,0.43 3.71,-0.231 7.19,-1.95 9.69,-4.719 0,0 3.9,-4.813 1.95,-8.172 z m 4.06,64.532 c -0.86,-1.485 -2.62,-2.153 -4.22,-1.602 -1.52,0.899 -2.77,2.231 -3.51,3.828 -0.98,1.801 -1.8,3.403 -4.22,3.16 -1.99,-0.347 -3.87,-1.207 -5.39,-2.539 -0.82,-0.621 -4.18,-3.16 -5.04,-3.898 -4.96,-2.973 -8.79,-7.5 -10.86,-12.934 -0.27,-0.937 -0.51,-1.918 -0.66,-2.886 -0.04,-1.879 -0.86,-3.672 -2.27,-4.891 h -0.82 c -0.7,0 -1.41,0.277 -1.95,0.75 -0.59,0.43 -0.98,1.129 -0.98,1.871 -0.98,8.828 2.3,17.578 8.87,23.559 4.06,3.589 7.73,7.648 10.93,12.07 1.57,2.109 3.29,4.18 4.97,6.129 1.64,1.949 3.43,0 6.95,-3.59 3.28,-4.57 6.01,-9.461 8.2,-14.609 0.51,-1.25 0.51,-2.661 0,-3.911 z m 76.99,108.437 -5.46,-5.039 c -6.68,-5.551 -12.66,-11.953 -17.7,-19.019 -2.03,-2.973 -3.75,-6.102 -5.16,-9.379 0,0 -0.54,-1.055 -1.29,-1.055 -0.39,0.043 -0.74,0.191 -0.97,0.512 -0.86,4.84 -0.39,9.84 1.44,14.41 4.73,11.211 12.54,20.859 22.5,27.89 1.18,0.743 2.5,1.129 3.87,1.129 1.8,0.161 3.52,-0.82 4.22,-2.5 1.29,-2.339 0.7,-5.308 -1.45,-6.949" /></g></g></svg>